<svg width="38" height="38" viewBox="0 0 38 38" fill="none" xmlns="http://www.w3.org/2000/svg">
<g clip-path="url(#clip0_1_292)">
<path d="M36.9821 11.875C37.542 11.875 38 11.4742 38 10.9844V8.01562C38 7.52578 37.542 7.125 36.9821 7.125H35.2857V3.5625C35.2857 1.5957 33.4621 0 31.2143 0H4.07143C1.82366 0 0 1.5957 0 3.5625V34.4375C0 36.4043 1.82366 38 4.07143 38H31.2143C33.4621 38 35.2857 36.4043 35.2857 34.4375V30.875H36.9821C37.542 30.875 38 30.4742 38 29.9844V27.0156C38 26.5258 37.542 26.125 36.9821 26.125H35.2857V21.375H36.9821C37.542 21.375 38 20.9742 38 20.4844V17.5156C38 17.0258 37.542 16.625 36.9821 16.625H35.2857V11.875H36.9821ZM17.6429 9.5C20.6371 9.5 23.0714 11.6301 23.0714 14.25C23.0714 16.8699 20.6371 19 17.6429 19C14.6487 19 12.2143 16.8699 12.2143 14.25C12.2143 11.6301 14.6487 9.5 17.6429 9.5ZM27.1429 27.075C27.1429 27.8617 26.2946 28.5 25.2429 28.5H10.0429C8.99107 28.5 8.14286 27.8617 8.14286 27.075V25.65C8.14286 23.2898 10.696 21.375 13.8429 21.375H14.267C15.3103 21.7535 16.4469 21.9688 17.6429 21.9688C18.8388 21.9688 19.9839 21.7535 21.0187 21.375H21.4429C24.5897 21.375 27.1429 23.2898 27.1429 25.65V27.075Z" fill="#316099"/>
</g>
<defs>
<clipPath id="clip0_1_292">
<rect width="38" height="38" fill="white"/>
</clipPath>
</defs>
</svg>
