<svg width="664" height="428" viewBox="0 0 664 428" fill="none" xmlns="http://www.w3.org/2000/svg">
<mask id="mask0_13802_2" style="mask-type:alpha" maskUnits="userSpaceOnUse" x="0" y="0" width="664" height="428">
<rect y="0.231506" width="663.342" height="427.768" rx="10" fill="#E8E8E8"/>
</mask>
<g mask="url(#mask0_13802_2)">
<rect x="-106.889" y="0.231506" width="876.073" height="428.794"/>
<rect y="0.231506" width="663.342" height="427.768" rx="10" fill="url(#paint0_linear_13802_2)"/>
</g>
<path d="M51.2357 61.0266C51.2357 60.5618 51.1628 60.1516 51.017 59.7961C50.8802 59.4316 50.6342 59.1034 50.2787 58.8118C49.9323 58.5201 49.4493 58.2421 48.8295 57.9778C48.2188 57.7135 47.4441 57.4446 46.5052 57.1711C45.5209 56.8795 44.6322 56.5559 43.8392 56.2004C43.0463 55.8359 42.3672 55.4211 41.8021 54.9563C41.237 54.4915 40.8041 53.9583 40.5033 53.3567C40.2025 52.7551 40.0521 52.067 40.0521 51.2922C40.0521 50.5175 40.2116 49.802 40.5306 49.1458C40.8497 48.4895 41.3054 47.9198 41.8978 47.4368C42.4994 46.9446 43.2149 46.5618 44.0443 46.2883C44.8737 46.0149 45.7989 45.8782 46.8197 45.8782C48.3145 45.8782 49.5814 46.1653 50.6205 46.7395C51.6687 47.3046 52.4662 48.0474 53.0131 48.968C53.5599 49.8795 53.8334 50.8547 53.8334 51.8938H51.2084C51.2084 51.1464 51.0489 50.4856 50.7299 49.9114C50.4108 49.328 49.9278 48.8723 49.2806 48.5442C48.6335 48.2069 47.8132 48.0383 46.8197 48.0383C45.8809 48.0383 45.1062 48.1796 44.4955 48.4622C43.8848 48.7447 43.4291 49.1275 43.1283 49.6106C42.8366 50.0937 42.6908 50.6451 42.6908 51.2649C42.6908 51.6842 42.7774 52.067 42.9506 52.4133C43.1329 52.7506 43.4108 53.065 43.7845 53.3567C44.1674 53.6484 44.6504 53.9172 45.2338 54.1633C45.8262 54.4094 46.5326 54.6464 47.3529 54.8743C48.4831 55.1933 49.4584 55.5487 50.2787 55.9407C51.099 56.3326 51.7735 56.7747 52.3021 57.2668C52.8399 57.7499 53.2364 58.3014 53.4916 58.9211C53.7559 59.5318 53.8881 60.2245 53.8881 60.9993C53.8881 61.8105 53.724 62.5442 53.3959 63.2004C53.0677 63.8567 52.5983 64.4172 51.9877 64.8821C51.377 65.3469 50.6433 65.7069 49.7865 65.9622C48.9388 66.2083 47.9909 66.3313 46.9427 66.3313C46.0222 66.3313 45.1153 66.2037 44.222 65.9485C43.3379 65.6933 42.5313 65.3105 41.8021 64.8C41.0821 64.2896 40.5033 63.6607 40.0658 62.9133C39.6374 62.1568 39.4232 61.2818 39.4232 60.2883H42.0482C42.0482 60.9719 42.1804 61.5598 42.4447 62.052C42.709 62.5351 43.0691 62.9361 43.5248 63.2551C43.9896 63.5741 44.5137 63.8111 45.097 63.9661C45.6895 64.1119 46.3047 64.1848 46.9427 64.1848C47.8633 64.1848 48.6426 64.0572 49.2806 63.802C49.9187 63.5468 50.4017 63.1822 50.7299 62.7083C51.0671 62.2343 51.2357 61.6737 51.2357 61.0266ZM60.7978 54.1086V71.7454H58.2549V51.2649H60.5791L60.7978 54.1086ZM70.7646 58.5383V58.8254C70.7646 59.901 70.637 60.899 70.3818 61.8196C70.1266 62.731 69.7529 63.524 69.2607 64.1985C68.7776 64.873 68.1806 65.3971 67.4697 65.7708C66.7588 66.1444 65.943 66.3313 65.0224 66.3313C64.0836 66.3313 63.2542 66.1764 62.5342 65.8665C61.8141 65.5566 61.2034 65.1054 60.7021 64.5129C60.2008 63.9205 59.7998 63.2096 59.499 62.3801C59.2073 61.5507 59.0068 60.6165 58.8974 59.5774V58.0461C59.0068 56.9524 59.2119 55.9726 59.5127 55.1067C59.8135 54.2408 60.2099 53.5025 60.7021 52.8918C61.2034 52.2721 61.8095 51.8027 62.5205 51.4836C63.2314 51.1555 64.0517 50.9915 64.9814 50.9915C65.9111 50.9915 66.736 51.1737 67.456 51.5383C68.1761 51.8938 68.7822 52.4042 69.2744 53.0696C69.7666 53.7349 70.1357 54.5325 70.3818 55.4622C70.637 56.3827 70.7646 57.4081 70.7646 58.5383ZM68.2217 58.8254V58.5383C68.2217 57.8 68.1442 57.1073 67.9892 56.4602C67.8343 55.804 67.5927 55.2297 67.2646 54.7375C66.9456 54.2362 66.5355 53.8443 66.0342 53.5618C65.5329 53.2701 64.9358 53.1243 64.2431 53.1243C63.6051 53.1243 63.0491 53.2336 62.5752 53.4524C62.1103 53.6711 61.7138 53.9674 61.3857 54.3411C61.0576 54.7056 60.7887 55.1249 60.5791 55.5989C60.3786 56.0637 60.2282 56.5468 60.1279 57.0481V60.5891C60.3102 61.2271 60.5654 61.8287 60.8935 62.3938C61.2217 62.9498 61.6592 63.401 62.206 63.7473C62.7529 64.0846 63.4411 64.2532 64.2705 64.2532C64.9541 64.2532 65.542 64.1119 66.0342 63.8293C66.5355 63.5377 66.9456 63.1412 67.2646 62.6399C67.5927 62.1386 67.8343 61.5644 67.9892 60.9172C68.1442 60.261 68.2217 59.5637 68.2217 58.8254ZM84.1138 63.5286V55.9133C84.1138 55.33 83.9954 54.8241 83.7584 54.3958C83.5305 53.9583 83.1842 53.621 82.7193 53.384C82.2545 53.1471 81.6802 53.0286 80.9967 53.0286C80.3586 53.0286 79.7981 53.1379 79.315 53.3567C78.8411 53.5754 78.4674 53.8625 78.1939 54.218C77.9296 54.5735 77.7974 54.9563 77.7974 55.3665H75.2681C75.2681 54.8378 75.4049 54.3137 75.6783 53.7942C75.9517 53.2747 76.3437 52.8053 76.8541 52.386C77.3736 51.9576 77.9934 51.6204 78.7135 51.3743C79.4426 51.1191 80.2538 50.9915 81.147 50.9915C82.2226 50.9915 83.1705 51.1737 83.9908 51.5383C84.8202 51.9029 85.4674 52.4543 85.9322 53.1926C86.4062 53.9218 86.6431 54.8378 86.6431 55.9407V62.8313C86.6431 63.3235 86.6842 63.8476 86.7662 64.4036C86.8573 64.9596 86.9895 65.4381 87.1627 65.8391V66.0579H84.524C84.3964 65.7662 84.2961 65.3788 84.2232 64.8958C84.1503 64.4036 84.1138 63.9478 84.1138 63.5286ZM84.5513 57.0891L84.5787 58.8665H82.022C81.302 58.8665 80.6594 58.9257 80.0943 59.0442C79.5292 59.1536 79.0552 59.3222 78.6724 59.55C78.2896 59.7779 77.998 60.065 77.7974 60.4114C77.5969 60.7486 77.4967 61.1451 77.4967 61.6008C77.4967 62.0657 77.6015 62.4895 77.8111 62.8723C78.0207 63.2551 78.3352 63.5605 78.7545 63.7883C79.1829 64.0071 79.7069 64.1165 80.3267 64.1165C81.1015 64.1165 81.7851 63.9524 82.3775 63.6243C82.97 63.2961 83.4394 62.8951 83.7857 62.4211C84.1412 61.9472 84.3326 61.4869 84.3599 61.0403L85.44 62.2571C85.3762 62.6399 85.203 63.0637 84.9205 63.5286C84.6379 63.9934 84.2597 64.44 83.7857 64.8684C83.3209 65.2877 82.7649 65.6386 82.1177 65.9211C81.4797 66.1946 80.7597 66.3313 79.9576 66.3313C78.955 66.3313 78.0754 66.1353 77.3189 65.7434C76.5715 65.3515 75.9882 64.8274 75.5689 64.1711C75.1588 63.5058 74.9537 62.7629 74.9537 61.9426C74.9537 61.1497 75.1086 60.4524 75.4185 59.8508C75.7284 59.2402 76.175 58.7343 76.7584 58.3333C77.3417 57.9231 78.0435 57.6132 78.8638 57.4036C79.6842 57.1939 80.6002 57.0891 81.6119 57.0891H84.5513ZM94.551 53.5891V66.0579H92.0217V51.2649H94.4826L94.551 53.5891ZM99.172 51.1829L99.1584 53.5344C98.9487 53.4889 98.7482 53.4615 98.5568 53.4524C98.3745 53.4342 98.1649 53.425 97.9279 53.425C97.3446 53.425 96.8296 53.5162 96.383 53.6985C95.9364 53.8808 95.5581 54.136 95.2482 54.4641C94.9383 54.7922 94.6922 55.1842 94.5099 55.6399C94.3368 56.0865 94.2228 56.5787 94.1681 57.1165L93.4572 57.5266C93.4572 56.6334 93.5438 55.7948 93.717 55.011C93.8993 54.2271 94.1773 53.5344 94.551 52.9329C94.9247 52.3222 95.3986 51.8482 95.9728 51.511C96.5562 51.1646 97.2489 50.9915 98.051 50.9915C98.2332 50.9915 98.4429 51.0142 98.6799 51.0598C98.9168 51.0963 99.0809 51.1373 99.172 51.1829ZM105.453 45.0579V66.0579H102.91V45.0579H105.453ZM114.49 51.2649L108.037 58.1692L104.428 61.9153L104.222 59.2219L106.806 56.1321L111.4 51.2649H114.49ZM112.179 66.0579L106.902 59.0032L108.215 56.7473L115.16 66.0579H112.179ZM121.249 45.0579V66.0579H118.706V45.0579H121.249ZM129.458 51.2649V66.0579H126.915V51.2649H129.458ZM126.724 47.3411C126.724 46.9309 126.847 46.5846 127.093 46.302C127.348 46.0194 127.722 45.8782 128.214 45.8782C128.697 45.8782 129.066 46.0194 129.321 46.302C129.586 46.5846 129.718 46.9309 129.718 47.3411C129.718 47.733 129.586 48.0702 129.321 48.3528C129.066 48.6262 128.697 48.7629 128.214 48.7629C127.722 48.7629 127.348 48.6262 127.093 48.3528C126.847 48.0702 126.724 47.733 126.724 47.3411ZM141.112 51.2649V53.2063H133.114V51.2649H141.112ZM135.821 47.6692H138.35V62.3938C138.35 62.8951 138.428 63.2734 138.583 63.5286C138.738 63.7838 138.938 63.9524 139.184 64.0344C139.43 64.1165 139.695 64.1575 139.977 64.1575C140.187 64.1575 140.406 64.1392 140.633 64.1028C140.87 64.0572 141.048 64.0208 141.167 63.9934L141.18 66.0579C140.98 66.1217 140.715 66.1809 140.387 66.2356C140.068 66.2994 139.681 66.3313 139.225 66.3313C138.605 66.3313 138.036 66.2083 137.516 65.9622C136.997 65.7161 136.582 65.3059 136.272 64.7317C135.971 64.1484 135.821 63.3645 135.821 62.3801V47.6692ZM151.617 66.3313C150.587 66.3313 149.653 66.1581 148.815 65.8118C147.985 65.4563 147.27 64.9596 146.668 64.3215C146.076 63.6835 145.62 62.927 145.301 62.052C144.982 61.177 144.822 60.22 144.822 59.1809V58.6067C144.822 57.4036 145 56.3326 145.356 55.3938C145.711 54.4459 146.194 53.6438 146.805 52.9875C147.416 52.3313 148.108 51.8346 148.883 51.4973C149.658 51.1601 150.46 50.9915 151.289 50.9915C152.347 50.9915 153.258 51.1737 154.024 51.5383C154.798 51.9029 155.432 52.4133 155.924 53.0696C156.416 53.7167 156.781 54.4823 157.018 55.3665C157.255 56.2415 157.373 57.1985 157.373 58.2375V59.3723H146.326V57.3079H154.844V57.1165C154.807 56.4602 154.671 55.8222 154.434 55.2024C154.206 54.5826 153.841 54.0722 153.34 53.6711C152.839 53.2701 152.155 53.0696 151.289 53.0696C150.715 53.0696 150.186 53.1926 149.703 53.4387C149.22 53.6757 148.806 54.0312 148.459 54.5051C148.113 54.9791 147.844 55.5579 147.653 56.2415C147.461 56.925 147.365 57.7135 147.365 58.6067V59.1809C147.365 59.8827 147.461 60.5435 147.653 61.1633C147.853 61.774 148.14 62.3118 148.514 62.7766C148.897 63.2415 149.357 63.606 149.895 63.8704C150.442 64.1347 151.061 64.2668 151.754 64.2668C152.647 64.2668 153.404 64.0846 154.024 63.72C154.643 63.3554 155.186 62.8678 155.651 62.2571L157.182 63.4739C156.863 63.9569 156.457 64.4172 155.965 64.8547C155.473 65.2922 154.867 65.6477 154.147 65.9211C153.436 66.1946 152.593 66.3313 151.617 66.3313ZM177.824 47.9153L171.234 66.0579H168.54L176.128 46.1516H177.865L177.824 47.9153ZM183.347 66.0579L176.744 47.9153L176.703 46.1516H178.439L186.054 66.0579H183.347ZM183.005 58.6887V60.8489H171.822V58.6887H183.005ZM192.267 54.1086V71.7454H189.724V51.2649H192.048L192.267 54.1086ZM202.233 58.5383V58.8254C202.233 59.901 202.106 60.899 201.851 61.8196C201.595 62.731 201.222 63.524 200.729 64.1985C200.246 64.873 199.649 65.3971 198.938 65.7708C198.228 66.1444 197.412 66.3313 196.491 66.3313C195.552 66.3313 194.723 66.1764 194.003 65.8665C193.283 65.5566 192.672 65.1054 192.171 64.5129C191.67 63.9205 191.269 63.2096 190.968 62.3801C190.676 61.5507 190.476 60.6165 190.366 59.5774V58.0461C190.476 56.9524 190.681 55.9726 190.981 55.1067C191.282 54.2408 191.679 53.5025 192.171 52.8918C192.672 52.2721 193.278 51.8027 193.989 51.4836C194.7 51.1555 195.52 50.9915 196.45 50.9915C197.38 50.9915 198.205 51.1737 198.925 51.5383C199.645 51.8938 200.251 52.4042 200.743 53.0696C201.235 53.7349 201.604 54.5325 201.851 55.4622C202.106 56.3827 202.233 57.4081 202.233 58.5383ZM199.69 58.8254V58.5383C199.69 57.8 199.613 57.1073 199.458 56.4602C199.303 55.804 199.061 55.2297 198.733 54.7375C198.414 54.2362 198.004 53.8443 197.503 53.5618C197.002 53.2701 196.405 53.1243 195.712 53.1243C195.074 53.1243 194.518 53.2336 194.044 53.4524C193.579 53.6711 193.183 53.9674 192.854 54.3411C192.526 54.7056 192.257 55.1249 192.048 55.5989C191.847 56.0637 191.697 56.5468 191.597 57.0481V60.5891C191.779 61.2271 192.034 61.8287 192.362 62.3938C192.69 62.9498 193.128 63.401 193.675 63.7473C194.222 64.0846 194.91 64.2532 195.739 64.2532C196.423 64.2532 197.011 64.1119 197.503 63.8293C198.004 63.5377 198.414 63.1412 198.733 62.6399C199.061 62.1386 199.303 61.5644 199.458 60.9172C199.613 60.261 199.69 59.5637 199.69 58.8254ZM209.389 54.1086V71.7454H206.846V51.2649H209.17L209.389 54.1086ZM219.356 58.5383V58.8254C219.356 59.901 219.228 60.899 218.973 61.8196C218.718 62.731 218.344 63.524 217.852 64.1985C217.369 64.873 216.772 65.3971 216.061 65.7708C215.35 66.1444 214.534 66.3313 213.614 66.3313C212.675 66.3313 211.846 66.1764 211.126 65.8665C210.406 65.5566 209.795 65.1054 209.294 64.5129C208.792 63.9205 208.391 63.2096 208.09 62.3801C207.799 61.5507 207.598 60.6165 207.489 59.5774V58.0461C207.598 56.9524 207.803 55.9726 208.104 55.1067C208.405 54.2408 208.801 53.5025 209.294 52.8918C209.795 52.2721 210.401 51.8027 211.112 51.4836C211.823 51.1555 212.643 50.9915 213.573 50.9915C214.503 50.9915 215.327 51.1737 216.047 51.5383C216.767 51.8938 217.374 52.4042 217.866 53.0696C218.358 53.7349 218.727 54.5325 218.973 55.4622C219.228 56.3827 219.356 57.4081 219.356 58.5383ZM216.813 58.8254V58.5383C216.813 57.8 216.736 57.1073 216.581 56.4602C216.426 55.804 216.184 55.2297 215.856 54.7375C215.537 54.2362 215.127 53.8443 214.626 53.5618C214.124 53.2701 213.527 53.1243 212.835 53.1243C212.197 53.1243 211.641 53.2336 211.167 53.4524C210.702 53.6711 210.305 53.9674 209.977 54.3411C209.649 54.7056 209.38 55.1249 209.17 55.5989C208.97 56.0637 208.82 56.5468 208.719 57.0481V60.5891C208.902 61.2271 209.157 61.8287 209.485 62.3938C209.813 62.9498 210.251 63.401 210.797 63.7473C211.344 64.0846 212.032 64.2532 212.862 64.2532C213.545 64.2532 214.133 64.1119 214.626 63.8293C215.127 63.5377 215.537 63.1412 215.856 62.6399C216.184 62.1386 216.426 61.5644 216.581 60.9172C216.736 60.261 216.813 59.5637 216.813 58.8254Z" fill="white"/>
<defs>
<linearGradient id="paint0_linear_13802_2" x1="683.777" y1="428" x2="223.618" y2="-146.719" gradientUnits="userSpaceOnUse">
<stop stop-color="#42A5F5" stop-opacity="0.4"/>
<stop offset="0.775181" stop-color="#1565C0" stop-opacity="0.6"/>
</linearGradient>
</defs>
</svg>
