<svg width="664" height="428" viewBox="0 0 664 428" fill="none" xmlns="http://www.w3.org/2000/svg">
<mask id="mask0_13802_3" style="mask-type:alpha" maskUnits="userSpaceOnUse" x="0" y="0" width="664" height="428">
<rect x="0.657837" y="0.231506" width="663.342" height="427.768" rx="10" fill="#E8E8E8"/>
</mask>
<g mask="url(#mask0_13802_3)">
<rect x="-10.3454" y="0.231506" width="948.655" height="463.672"/>
<rect x="0.657837" y="0.231506" width="663.342" height="427.768" rx="10" fill="url(#paint0_linear_13802_3)"/>
</g>
<path d="M53.3018 59.7278H55.9268C55.79 60.9856 55.43 62.1112 54.8467 63.1047C54.2633 64.0982 53.4385 64.8866 52.3721 65.47C51.3057 66.0442 49.9749 66.3313 48.3799 66.3313C47.2132 66.3313 46.1514 66.1125 45.1943 65.675C44.2464 65.2375 43.4307 64.6178 42.7471 63.8157C42.0635 63.0045 41.5348 62.0338 41.1611 60.9036C40.7965 59.7642 40.6143 58.4973 40.6143 57.1028V55.1204C40.6143 53.7258 40.7965 52.4635 41.1611 51.3333C41.5348 50.1939 42.068 49.2187 42.7607 48.4075C43.4626 47.5963 44.3057 46.9719 45.29 46.5344C46.2744 46.0969 47.3818 45.8782 48.6123 45.8782C50.1162 45.8782 51.3877 46.1607 52.4268 46.7258C53.4658 47.2909 54.2725 48.0748 54.8467 49.0774C55.43 50.0709 55.79 51.2239 55.9268 52.5364H53.3018C53.1742 51.6067 52.9372 50.8092 52.5908 50.1438C52.2445 49.4693 51.7523 48.9498 51.1143 48.5852C50.4762 48.2206 49.6423 48.0383 48.6123 48.0383C47.7282 48.0383 46.9489 48.2069 46.2744 48.5442C45.609 48.8814 45.0485 49.3599 44.5928 49.9797C44.1462 50.5995 43.8089 51.3424 43.5811 52.2083C43.3532 53.0741 43.2393 54.0357 43.2393 55.093V57.1028C43.2393 58.078 43.3395 58.9941 43.54 59.8508C43.7497 60.7076 44.0641 61.4596 44.4834 62.1067C44.9027 62.7538 45.4359 63.2642 46.083 63.6379C46.7301 64.0025 47.4958 64.1848 48.3799 64.1848C49.501 64.1848 50.3942 64.0071 51.0596 63.6516C51.7249 63.2961 52.2262 62.7857 52.5635 62.1204C52.9098 61.455 53.1559 60.6575 53.3018 59.7278ZM69.2623 63.5286V55.9133C69.2623 55.33 69.1438 54.8241 68.9068 54.3958C68.679 53.9583 68.3326 53.621 67.8678 53.384C67.4029 53.1471 66.8287 53.0286 66.1451 53.0286C65.5071 53.0286 64.9465 53.1379 64.4635 53.3567C63.9895 53.5754 63.6158 53.8625 63.3424 54.218C63.0781 54.5735 62.9459 54.9563 62.9459 55.3665H60.4166C60.4166 54.8378 60.5533 54.3137 60.8268 53.7942C61.1002 53.2747 61.4921 52.8053 62.0025 52.386C62.5221 51.9576 63.1419 51.6204 63.8619 51.3743C64.5911 51.1191 65.4023 50.9915 66.2955 50.9915C67.371 50.9915 68.3189 51.1737 69.1393 51.5383C69.9687 51.9029 70.6158 52.4543 71.0807 53.1926C71.5546 53.9218 71.7916 54.8378 71.7916 55.9407V62.8313C71.7916 63.3235 71.8326 63.8476 71.9146 64.4036C72.0058 64.9596 72.138 65.4381 72.3111 65.8391V66.0579H69.6725C69.5449 65.7662 69.4446 65.3788 69.3717 64.8958C69.2988 64.4036 69.2623 63.9478 69.2623 63.5286ZM69.6998 57.0891L69.7271 58.8665H67.1705C66.4505 58.8665 65.8079 58.9257 65.2428 59.0442C64.6777 59.1536 64.2037 59.3222 63.8209 59.55C63.4381 59.7779 63.1464 60.065 62.9459 60.4114C62.7454 60.7486 62.6451 61.1451 62.6451 61.6008C62.6451 62.0657 62.7499 62.4895 62.9596 62.8723C63.1692 63.2551 63.4837 63.5605 63.9029 63.7883C64.3313 64.0071 64.8554 64.1165 65.4752 64.1165C66.2499 64.1165 66.9335 63.9524 67.526 63.6243C68.1184 63.2961 68.5878 62.8951 68.9342 62.4211C69.2896 61.9472 69.4811 61.4869 69.5084 61.0403L70.5885 62.2571C70.5247 62.6399 70.3515 63.0637 70.0689 63.5286C69.7864 63.9934 69.4081 64.44 68.9342 64.8684C68.4693 65.2877 67.9133 65.6386 67.2662 65.9211C66.6282 66.1946 65.9081 66.3313 65.1061 66.3313C64.1035 66.3313 63.2239 66.1353 62.4674 65.7434C61.72 65.3515 61.1367 64.8274 60.7174 64.1711C60.3072 63.5058 60.1021 62.7629 60.1021 61.9426C60.1021 61.1497 60.2571 60.4524 60.567 59.8508C60.8769 59.2402 61.3235 58.7343 61.9068 58.3333C62.4902 57.9231 63.192 57.6132 64.0123 57.4036C64.8326 57.1939 65.7486 57.0891 66.7604 57.0891H69.6998ZM79.6994 53.5891V66.0579H77.1701V51.2649H79.6311L79.6994 53.5891ZM84.3205 51.1829L84.3068 53.5344C84.0972 53.4889 83.8967 53.4615 83.7053 53.4524C83.523 53.4342 83.3133 53.425 83.0764 53.425C82.493 53.425 81.9781 53.5162 81.5314 53.6985C81.0848 53.8808 80.7066 54.136 80.3967 54.4641C80.0868 54.7922 79.8407 55.1842 79.6584 55.6399C79.4852 56.0865 79.3713 56.5787 79.3166 57.1165L78.6057 57.5266C78.6057 56.6334 78.6923 55.7948 78.8654 55.011C79.0477 54.2271 79.3257 53.5344 79.6994 52.9329C80.0731 52.3222 80.5471 51.8482 81.1213 51.511C81.7046 51.1646 82.3973 50.9915 83.1994 50.9915C83.3817 50.9915 83.5913 51.0142 83.8283 51.0598C84.0653 51.0963 84.2294 51.1373 84.3205 51.1829ZM93.3221 56.5559V58.634H86.6502V56.5559H93.3221ZM97.5795 46.1516H104.169C105.664 46.1516 106.926 46.3795 107.956 46.8352C108.996 47.2909 109.784 47.9654 110.322 48.8586C110.869 49.7428 111.142 50.8319 111.142 52.1262C111.142 53.0377 110.955 53.8717 110.581 54.6282C110.217 55.3756 109.688 56.0136 108.996 56.5422C108.312 57.0618 107.492 57.4491 106.535 57.7043L105.796 57.9915H99.6029L99.5756 55.845H104.251C105.199 55.845 105.988 55.6809 106.617 55.3528C107.246 55.0155 107.719 54.5644 108.038 53.9993C108.357 53.4342 108.517 52.8098 108.517 52.1262C108.517 51.3606 108.367 50.6907 108.066 50.1165C107.765 49.5422 107.291 49.1002 106.644 48.7903C106.006 48.4713 105.181 48.3118 104.169 48.3118H100.218V66.0579H97.5795V46.1516ZM109.214 66.0579L104.374 57.0344L107.122 57.0208L112.031 65.8938V66.0579H109.214ZM124.573 63.5286V55.9133C124.573 55.33 124.455 54.8241 124.218 54.3958C123.99 53.9583 123.644 53.621 123.179 53.384C122.714 53.1471 122.14 53.0286 121.456 53.0286C120.818 53.0286 120.257 53.1379 119.774 53.3567C119.3 53.5754 118.927 53.8625 118.653 54.218C118.389 54.5735 118.257 54.9563 118.257 55.3665H115.728C115.728 54.8378 115.864 54.3137 116.138 53.7942C116.411 53.2747 116.803 52.8053 117.313 52.386C117.833 51.9576 118.453 51.6204 119.173 51.3743C119.902 51.1191 120.713 50.9915 121.606 50.9915C122.682 50.9915 123.63 51.1737 124.45 51.5383C125.28 51.9029 125.927 52.4543 126.392 53.1926C126.866 53.9218 127.103 54.8378 127.103 55.9407V62.8313C127.103 63.3235 127.144 63.8476 127.226 64.4036C127.317 64.9596 127.449 65.4381 127.622 65.8391V66.0579H124.983C124.856 65.7662 124.756 65.3788 124.683 64.8958C124.61 64.4036 124.573 63.9478 124.573 63.5286ZM125.011 57.0891L125.038 58.8665H122.481C121.761 58.8665 121.119 58.9257 120.554 59.0442C119.989 59.1536 119.515 59.3222 119.132 59.55C118.749 59.7779 118.457 60.065 118.257 60.4114C118.056 60.7486 117.956 61.1451 117.956 61.6008C117.956 62.0657 118.061 62.4895 118.271 62.8723C118.48 63.2551 118.795 63.5605 119.214 63.7883C119.642 64.0071 120.166 64.1165 120.786 64.1165C121.561 64.1165 122.244 63.9524 122.837 63.6243C123.429 63.2961 123.899 62.8951 124.245 62.4211C124.601 61.9472 124.792 61.4869 124.819 61.0403L125.899 62.2571C125.836 62.6399 125.662 63.0637 125.38 63.5286C125.097 63.9934 124.719 64.44 124.245 64.8684C123.78 65.2877 123.224 65.6386 122.577 65.9211C121.939 66.1946 121.219 66.3313 120.417 66.3313C119.414 66.3313 118.535 66.1353 117.778 65.7434C117.031 65.3515 116.448 64.8274 116.028 64.1711C115.618 63.5058 115.413 62.7629 115.413 61.9426C115.413 61.1497 115.568 60.4524 115.878 59.8508C116.188 59.2402 116.634 58.7343 117.218 58.3333C117.801 57.9231 118.503 57.6132 119.323 57.4036C120.144 57.1939 121.06 57.0891 122.071 57.0891H125.011ZM135.01 54.1086V71.7454H132.467V51.2649H134.792L135.01 54.1086ZM144.977 58.5383V58.8254C144.977 59.901 144.85 60.899 144.594 61.8196C144.339 62.731 143.965 63.524 143.473 64.1985C142.99 64.873 142.393 65.3971 141.682 65.7708C140.971 66.1444 140.156 66.3313 139.235 66.3313C138.296 66.3313 137.467 66.1764 136.747 65.8665C136.027 65.5566 135.416 65.1054 134.915 64.5129C134.413 63.9205 134.012 63.2096 133.712 62.3801C133.42 61.5507 133.219 60.6165 133.11 59.5774V58.0461C133.219 56.9524 133.424 55.9726 133.725 55.1067C134.026 54.2408 134.422 53.5025 134.915 52.8918C135.416 52.2721 136.022 51.8027 136.733 51.4836C137.444 51.1555 138.264 50.9915 139.194 50.9915C140.124 50.9915 140.949 51.1737 141.669 51.5383C142.389 51.8938 142.995 52.4042 143.487 53.0696C143.979 53.7349 144.348 54.5325 144.594 55.4622C144.85 56.3827 144.977 57.4081 144.977 58.5383ZM142.434 58.8254V58.5383C142.434 57.8 142.357 57.1073 142.202 56.4602C142.047 55.804 141.805 55.2297 141.477 54.7375C141.158 54.2362 140.748 53.8443 140.247 53.5618C139.745 53.2701 139.148 53.1243 138.456 53.1243C137.818 53.1243 137.262 53.2336 136.788 53.4524C136.323 53.6711 135.926 53.9674 135.598 54.3411C135.27 54.7056 135.001 55.1249 134.792 55.5989C134.591 56.0637 134.441 56.5468 134.34 57.0481V60.5891C134.523 61.2271 134.778 61.8287 135.106 62.3938C135.434 62.9498 135.872 63.401 136.419 63.7473C136.965 64.0846 137.654 64.2532 138.483 64.2532C139.167 64.2532 139.754 64.1119 140.247 63.8293C140.748 63.5377 141.158 63.1412 141.477 62.6399C141.805 62.1386 142.047 61.5644 142.202 60.9172C142.357 60.261 142.434 59.5637 142.434 58.8254ZM155.742 66.3313C154.712 66.3313 153.778 66.1581 152.94 65.8118C152.11 65.4563 151.395 64.9596 150.793 64.3215C150.201 63.6835 149.745 62.927 149.426 62.052C149.107 61.177 148.947 60.22 148.947 59.1809V58.6067C148.947 57.4036 149.125 56.3326 149.481 55.3938C149.836 54.4459 150.319 53.6438 150.93 52.9875C151.541 52.3313 152.233 51.8346 153.008 51.4973C153.783 51.1601 154.585 50.9915 155.414 50.9915C156.472 50.9915 157.383 51.1737 158.149 51.5383C158.923 51.9029 159.557 52.4133 160.049 53.0696C160.541 53.7167 160.906 54.4823 161.143 55.3665C161.38 56.2415 161.498 57.1985 161.498 58.2375V59.3723H150.451V57.3079H158.969V57.1165C158.932 56.4602 158.796 55.8222 158.559 55.2024C158.331 54.5826 157.966 54.0722 157.465 53.6711C156.964 53.2701 156.28 53.0696 155.414 53.0696C154.84 53.0696 154.311 53.1926 153.828 53.4387C153.345 53.6757 152.931 54.0312 152.584 54.5051C152.238 54.9791 151.969 55.5579 151.778 56.2415C151.586 56.925 151.49 57.7135 151.49 58.6067V59.1809C151.49 59.8827 151.586 60.5435 151.778 61.1633C151.978 61.774 152.265 62.3118 152.639 62.7766C153.022 63.2415 153.482 63.606 154.02 63.8704C154.567 64.1347 155.186 64.2668 155.879 64.2668C156.772 64.2668 157.529 64.0846 158.149 63.72C158.768 63.3554 159.311 62.8678 159.776 62.2571L161.307 63.4739C160.988 63.9569 160.582 64.4172 160.09 64.8547C159.598 65.2922 158.992 65.6477 158.272 65.9211C157.561 66.1946 156.718 66.3313 155.742 66.3313ZM172.045 51.2649V53.2063H164.047V51.2649H172.045ZM166.754 47.6692H169.283V62.3938C169.283 62.8951 169.36 63.2734 169.515 63.5286C169.67 63.7838 169.871 63.9524 170.117 64.0344C170.363 64.1165 170.627 64.1575 170.91 64.1575C171.12 64.1575 171.338 64.1392 171.566 64.1028C171.803 64.0572 171.981 64.0208 172.099 63.9934L172.113 66.0579C171.913 66.1217 171.648 66.1809 171.32 66.2356C171.001 66.2994 170.614 66.3313 170.158 66.3313C169.538 66.3313 168.969 66.2083 168.449 65.9622C167.929 65.7161 167.515 65.3059 167.205 64.7317C166.904 64.1484 166.754 63.3645 166.754 62.3801V47.6692ZM179.16 51.2649V66.0579H176.617V51.2649H179.16ZM176.425 47.3411C176.425 46.9309 176.548 46.5846 176.794 46.302C177.05 46.0194 177.423 45.8782 177.915 45.8782C178.399 45.8782 178.768 46.0194 179.023 46.302C179.287 46.5846 179.419 46.9309 179.419 47.3411C179.419 47.733 179.287 48.0702 179.023 48.3528C178.768 48.6262 178.399 48.7629 177.915 48.7629C177.423 48.7629 177.05 48.6262 176.794 48.3528C176.548 48.0702 176.425 47.733 176.425 47.3411ZM190.813 51.2649V53.2063H182.815V51.2649H190.813ZM185.522 47.6692H188.052V62.3938C188.052 62.8951 188.129 63.2734 188.284 63.5286C188.439 63.7838 188.64 63.9524 188.886 64.0344C189.132 64.1165 189.396 64.1575 189.679 64.1575C189.888 64.1575 190.107 64.1392 190.335 64.1028C190.572 64.0572 190.75 64.0208 190.868 63.9934L190.882 66.0579C190.681 66.1217 190.417 66.1809 190.089 66.2356C189.77 66.2994 189.382 66.3313 188.927 66.3313C188.307 66.3313 187.737 66.2083 187.218 65.9622C186.698 65.7161 186.284 65.3059 185.974 64.7317C185.673 64.1484 185.522 63.3645 185.522 62.3801V47.6692ZM197.928 51.2649V66.0579H195.385V51.2649H197.928ZM195.194 47.3411C195.194 46.9309 195.317 46.5846 195.563 46.302C195.818 46.0194 196.192 45.8782 196.684 45.8782C197.167 45.8782 197.536 46.0194 197.792 46.302C198.056 46.5846 198.188 46.9309 198.188 47.3411C198.188 47.733 198.056 48.0702 197.792 48.3528C197.536 48.6262 197.167 48.7629 196.684 48.7629C196.192 48.7629 195.818 48.6262 195.563 48.3528C195.317 48.0702 195.194 47.733 195.194 47.3411ZM202.719 58.8254V58.511C202.719 57.4446 202.874 56.4556 203.184 55.5442C203.494 54.6236 203.94 53.8261 204.524 53.1516C205.107 52.468 205.813 51.9394 206.643 51.5657C207.472 51.1829 208.402 50.9915 209.432 50.9915C210.471 50.9915 211.405 51.1829 212.235 51.5657C213.073 51.9394 213.784 52.468 214.367 53.1516C214.96 53.8261 215.411 54.6236 215.721 55.5442C216.031 56.4556 216.186 57.4446 216.186 58.511V58.8254C216.186 59.8918 216.031 60.8808 215.721 61.7922C215.411 62.7037 214.96 63.5012 214.367 64.1848C213.784 64.8593 213.078 65.3879 212.248 65.7708C211.428 66.1444 210.498 66.3313 209.459 66.3313C208.42 66.3313 207.486 66.1444 206.656 65.7708C205.827 65.3879 205.116 64.8593 204.524 64.1848C203.94 63.5012 203.494 62.7037 203.184 61.7922C202.874 60.8808 202.719 59.8918 202.719 58.8254ZM205.248 58.511V58.8254C205.248 59.5637 205.335 60.261 205.508 60.9172C205.681 61.5644 205.941 62.1386 206.287 62.6399C206.643 63.1412 207.085 63.5377 207.613 63.8293C208.142 64.1119 208.757 64.2532 209.459 64.2532C210.152 64.2532 210.758 64.1119 211.278 63.8293C211.806 63.5377 212.244 63.1412 212.59 62.6399C212.936 62.1386 213.196 61.5644 213.369 60.9172C213.552 60.261 213.643 59.5637 213.643 58.8254V58.511C213.643 57.7818 213.552 57.0937 213.369 56.4465C213.196 55.7903 212.932 55.2115 212.576 54.7102C212.23 54.1998 211.793 53.7987 211.264 53.5071C210.744 53.2154 210.134 53.0696 209.432 53.0696C208.739 53.0696 208.128 53.2154 207.6 53.5071C207.08 53.7987 206.643 54.1998 206.287 54.7102C205.941 55.2115 205.681 55.7903 205.508 56.4465C205.335 57.0937 205.248 57.7818 205.248 58.511ZM223.287 54.4231V66.0579H220.758V51.2649H223.15L223.287 54.4231ZM222.685 58.1008L221.633 58.0598C221.642 57.0481 221.792 56.1139 222.084 55.2571C222.375 54.3912 222.786 53.6392 223.314 53.0012C223.843 52.3632 224.472 51.871 225.201 51.5247C225.939 51.1692 226.755 50.9915 227.648 50.9915C228.377 50.9915 229.034 51.0917 229.617 51.2922C230.2 51.4836 230.697 51.7935 231.107 52.2219C231.526 52.6503 231.846 53.2063 232.064 53.8899C232.283 54.5644 232.392 55.3892 232.392 56.3645V66.0579H229.849V56.3372C229.849 55.5624 229.735 54.9426 229.508 54.4778C229.28 54.0038 228.947 53.662 228.51 53.4524C228.072 53.2336 227.534 53.1243 226.896 53.1243C226.267 53.1243 225.693 53.2564 225.174 53.5208C224.663 53.7851 224.221 54.1497 223.847 54.6145C223.483 55.0793 223.196 55.6125 222.986 56.2141C222.786 56.8066 222.685 57.4355 222.685 58.1008ZM253.731 47.9153L247.142 66.0579H244.448L252.036 46.1516H253.772L253.731 47.9153ZM259.255 66.0579L252.651 47.9153L252.61 46.1516H254.347L261.962 66.0579H259.255ZM258.913 58.6887V60.8489H247.729V58.6887H258.913ZM268.174 54.1086V71.7454H265.631V51.2649H267.956L268.174 54.1086ZM278.141 58.5383V58.8254C278.141 59.901 278.014 60.899 277.758 61.8196C277.503 62.731 277.129 63.524 276.637 64.1985C276.154 64.873 275.557 65.3971 274.846 65.7708C274.135 66.1444 273.32 66.3313 272.399 66.3313C271.46 66.3313 270.631 66.1764 269.911 65.8665C269.191 65.5566 268.58 65.1054 268.079 64.5129C267.577 63.9205 267.176 63.2096 266.876 62.3801C266.584 61.5507 266.383 60.6165 266.274 59.5774V58.0461C266.383 56.9524 266.588 55.9726 266.889 55.1067C267.19 54.2408 267.587 53.5025 268.079 52.8918C268.58 52.2721 269.186 51.8027 269.897 51.4836C270.608 51.1555 271.428 50.9915 272.358 50.9915C273.288 50.9915 274.113 51.1737 274.833 51.5383C275.553 51.8938 276.159 52.4042 276.651 53.0696C277.143 53.7349 277.512 54.5325 277.758 55.4622C278.014 56.3827 278.141 57.4081 278.141 58.5383ZM275.598 58.8254V58.5383C275.598 57.8 275.521 57.1073 275.366 56.4602C275.211 55.804 274.969 55.2297 274.641 54.7375C274.322 54.2362 273.912 53.8443 273.411 53.5618C272.909 53.2701 272.312 53.1243 271.62 53.1243C270.982 53.1243 270.426 53.2336 269.952 53.4524C269.487 53.6711 269.09 53.9674 268.762 54.3411C268.434 54.7056 268.165 55.1249 267.956 55.5989C267.755 56.0637 267.605 56.5468 267.504 57.0481V60.5891C267.687 61.2271 267.942 61.8287 268.27 62.3938C268.598 62.9498 269.036 63.401 269.583 63.7473C270.129 64.0846 270.818 64.2532 271.647 64.2532C272.331 64.2532 272.919 64.1119 273.411 63.8293C273.912 63.5377 274.322 63.1412 274.641 62.6399C274.969 62.1386 275.211 61.5644 275.366 60.9172C275.521 60.261 275.598 59.5637 275.598 58.8254ZM285.297 54.1086V71.7454H282.754V51.2649H285.078L285.297 54.1086ZM295.264 58.5383V58.8254C295.264 59.901 295.136 60.899 294.881 61.8196C294.626 62.731 294.252 63.524 293.76 64.1985C293.277 64.873 292.68 65.3971 291.969 65.7708C291.258 66.1444 290.442 66.3313 289.522 66.3313C288.583 66.3313 287.753 66.1764 287.033 65.8665C286.313 65.5566 285.703 65.1054 285.201 64.5129C284.7 63.9205 284.299 63.2096 283.998 62.3801C283.707 61.5507 283.506 60.6165 283.397 59.5774V58.0461C283.506 56.9524 283.711 55.9726 284.012 55.1067C284.313 54.2408 284.709 53.5025 285.201 52.8918C285.703 52.2721 286.309 51.8027 287.02 51.4836C287.731 51.1555 288.551 50.9915 289.481 50.9915C290.41 50.9915 291.235 51.1737 291.955 51.5383C292.675 51.8938 293.281 52.4042 293.774 53.0696C294.266 53.7349 294.635 54.5325 294.881 55.4622C295.136 56.3827 295.264 57.4081 295.264 58.5383ZM292.721 58.8254V58.5383C292.721 57.8 292.643 57.1073 292.488 56.4602C292.334 55.804 292.092 55.2297 291.764 54.7375C291.445 54.2362 291.035 53.8443 290.533 53.5618C290.032 53.2701 289.435 53.1243 288.742 53.1243C288.104 53.1243 287.548 53.2336 287.074 53.4524C286.61 53.6711 286.213 53.9674 285.885 54.3411C285.557 54.7056 285.288 55.1249 285.078 55.5989C284.878 56.0637 284.727 56.5468 284.627 57.0481V60.5891C284.809 61.2271 285.065 61.8287 285.393 62.3938C285.721 62.9498 286.158 63.401 286.705 63.7473C287.252 64.0846 287.94 64.2532 288.77 64.2532C289.453 64.2532 290.041 64.1119 290.533 63.8293C291.035 63.5377 291.445 63.1412 291.764 62.6399C292.092 62.1386 292.334 61.5644 292.488 60.9172C292.643 60.261 292.721 59.5637 292.721 58.8254Z" fill="white"/>
<defs>
<linearGradient id="paint0_linear_13802_3" x1="664" y1="428" x2="176.441" y2="-131.024" gradientUnits="userSpaceOnUse">
<stop stop-color="#42A5F5" stop-opacity="0.4"/>
<stop offset="1" stop-color="#1565C0" stop-opacity="0.6"/>
</linearGradient>
</defs>
</svg>
