<svg width="1365" height="493" viewBox="0 0 1365 493" fill="none" xmlns="http://www.w3.org/2000/svg">
<mask id="mask0_13802_4" style="mask-type:alpha" maskUnits="userSpaceOnUse" x="0" y="0" width="1365" height="493">
<rect y="0.00979614" width="1365" height="492.395" rx="10" fill="#E8E8E8"/>
</mask>
<g mask="url(#mask0_13802_4)">
<rect x="-47.9203" y="-140.506" width="1459.39" height="753.353"/>
<rect y="0.00979614" width="1365" height="492.395" fill="url(#paint0_linear_13802_4)"/>
</g>
<path d="M921.403 93.9125C921.403 93.3813 921.319 92.9125 921.153 92.5063C920.997 92.0896 920.715 91.7146 920.309 91.3813C919.913 91.0479 919.361 90.7302 918.653 90.4281C917.955 90.126 917.069 89.8188 915.997 89.5063C914.872 89.1729 913.856 88.8031 912.95 88.3969C912.043 87.9802 911.267 87.5063 910.622 86.975C909.976 86.4438 909.481 85.8344 909.137 85.1469C908.793 84.4594 908.622 83.6729 908.622 82.7875C908.622 81.9021 908.804 81.0844 909.168 80.3344C909.533 79.5844 910.054 78.9333 910.731 78.3813C911.418 77.8188 912.236 77.3813 913.184 77.0688C914.132 76.7563 915.189 76.6 916.356 76.6C918.064 76.6 919.512 76.9281 920.7 77.5844C921.898 78.2302 922.809 79.0792 923.434 80.1313C924.059 81.1729 924.372 82.2875 924.372 83.475H921.372C921.372 82.6208 921.189 81.8656 920.825 81.2094C920.46 80.5427 919.908 80.0219 919.168 79.6469C918.429 79.2615 917.491 79.0688 916.356 79.0688C915.283 79.0688 914.398 79.2302 913.7 79.5531C913.002 79.876 912.481 80.3135 912.137 80.8656C911.804 81.4177 911.637 82.0479 911.637 82.7563C911.637 83.2354 911.736 83.6729 911.934 84.0688C912.142 84.4542 912.46 84.8135 912.887 85.1469C913.325 85.4802 913.877 85.7875 914.543 86.0688C915.22 86.35 916.028 86.6208 916.965 86.8813C918.257 87.2458 919.372 87.6521 920.309 88.1C921.247 88.5479 922.017 89.0531 922.622 89.6156C923.236 90.1677 923.689 90.7979 923.981 91.5063C924.283 92.2042 924.434 92.9958 924.434 93.8813C924.434 94.8083 924.247 95.6469 923.872 96.3969C923.497 97.1469 922.96 97.7875 922.262 98.3188C921.564 98.85 920.726 99.2615 919.747 99.5531C918.778 99.8344 917.694 99.975 916.497 99.975C915.444 99.975 914.408 99.8292 913.387 99.5375C912.377 99.2458 911.455 98.8083 910.622 98.225C909.799 97.6417 909.137 96.9229 908.637 96.0688C908.148 95.2042 907.903 94.2042 907.903 93.0688H910.903C910.903 93.85 911.054 94.5219 911.356 95.0844C911.658 95.6365 912.069 96.0948 912.59 96.4594C913.122 96.824 913.72 97.0948 914.387 97.2719C915.064 97.4385 915.767 97.5219 916.497 97.5219C917.549 97.5219 918.439 97.376 919.168 97.0844C919.898 96.7927 920.45 96.376 920.825 95.8344C921.21 95.2927 921.403 94.6521 921.403 93.9125ZM932.315 86.1156V99.6625H929.409V82.7563H932.159L932.315 86.1156ZM931.722 90.5688L930.378 90.5219C930.388 89.3656 930.539 88.2979 930.831 87.3188C931.123 86.3292 931.555 85.4698 932.128 84.7406C932.701 84.0115 933.414 83.449 934.268 83.0531C935.123 82.6469 936.112 82.4438 937.237 82.4438C938.029 82.4438 938.758 82.5583 939.425 82.7875C940.091 83.0063 940.669 83.3552 941.159 83.8344C941.649 84.3135 942.029 84.9281 942.3 85.6781C942.57 86.4281 942.706 87.3344 942.706 88.3969V99.6625H939.815V88.5375C939.815 87.6521 939.664 86.9438 939.362 86.4125C939.07 85.8813 938.654 85.4958 938.112 85.2563C937.57 85.0063 936.935 84.8813 936.206 84.8813C935.352 84.8813 934.638 85.0323 934.065 85.3344C933.492 85.6365 933.034 86.0531 932.69 86.5844C932.347 87.1156 932.097 87.725 931.94 88.4125C931.794 89.0896 931.722 89.8083 931.722 90.5688ZM942.675 88.975L940.737 89.5688C940.748 88.6417 940.899 87.751 941.19 86.8969C941.492 86.0427 941.925 85.2823 942.487 84.6156C943.06 83.949 943.763 83.4229 944.597 83.0375C945.43 82.6417 946.383 82.4438 947.456 82.4438C948.362 82.4438 949.164 82.5635 949.862 82.8031C950.57 83.0427 951.164 83.4125 951.643 83.9125C952.133 84.4021 952.503 85.0323 952.753 85.8031C953.003 86.574 953.128 87.4906 953.128 88.5531V99.6625H950.222V88.5219C950.222 87.574 950.07 86.8396 949.768 86.3188C949.477 85.7875 949.06 85.4177 948.518 85.2094C947.987 84.9906 947.352 84.8813 946.612 84.8813C945.977 84.8813 945.414 84.9906 944.925 85.2094C944.435 85.4281 944.024 85.7302 943.69 86.1156C943.357 86.4906 943.102 86.9229 942.925 87.4125C942.758 87.9021 942.675 88.4229 942.675 88.975ZM969.072 96.7719V88.0688C969.072 87.4021 968.936 86.824 968.665 86.3344C968.405 85.8344 968.009 85.449 967.478 85.1781C966.947 84.9073 966.29 84.7719 965.509 84.7719C964.78 84.7719 964.139 84.8969 963.587 85.1469C963.045 85.3969 962.618 85.725 962.306 86.1313C962.004 86.5375 961.853 86.975 961.853 87.4438H958.962C958.962 86.8396 959.118 86.2406 959.431 85.6469C959.743 85.0531 960.191 84.5167 960.775 84.0375C961.368 83.5479 962.077 83.1625 962.9 82.8813C963.733 82.5896 964.66 82.4438 965.681 82.4438C966.91 82.4438 967.993 82.6521 968.931 83.0688C969.879 83.4854 970.618 84.1156 971.15 84.9594C971.691 85.7927 971.962 86.8396 971.962 88.1V95.975C971.962 96.5375 972.009 97.1365 972.103 97.7719C972.207 98.4073 972.358 98.9542 972.556 99.4125V99.6625H969.54C969.394 99.3292 969.28 98.8865 969.197 98.3344C969.113 97.7719 969.072 97.251 969.072 96.7719ZM969.572 89.4125L969.603 91.4438H966.681C965.858 91.4438 965.124 91.5115 964.478 91.6469C963.832 91.7719 963.29 91.9646 962.853 92.225C962.415 92.4854 962.082 92.8135 961.853 93.2094C961.624 93.5948 961.509 94.0479 961.509 94.5688C961.509 95.1 961.629 95.5844 961.868 96.0219C962.108 96.4594 962.467 96.8083 962.947 97.0688C963.436 97.3188 964.035 97.4438 964.743 97.4438C965.629 97.4438 966.41 97.2563 967.087 96.8813C967.764 96.5063 968.301 96.0479 968.697 95.5063C969.103 94.9646 969.322 94.4385 969.353 93.9281L970.587 95.3188C970.514 95.7563 970.316 96.2406 969.993 96.7719C969.67 97.3031 969.238 97.8135 968.697 98.3031C968.165 98.7823 967.53 99.1833 966.79 99.5063C966.061 99.8188 965.238 99.975 964.322 99.975C963.176 99.975 962.17 99.751 961.306 99.3031C960.452 98.8552 959.785 98.2563 959.306 97.5063C958.837 96.7458 958.603 95.8969 958.603 94.9594C958.603 94.0531 958.78 93.2563 959.134 92.5688C959.488 91.8708 959.999 91.2927 960.665 90.8344C961.332 90.3656 962.134 90.0115 963.072 89.7719C964.009 89.5323 965.056 89.4125 966.212 89.4125H969.572ZM981 85.4125V99.6625H978.109V82.7563H980.922L981 85.4125ZM986.281 82.6625L986.265 85.35C986.026 85.2979 985.797 85.2667 985.578 85.2563C985.369 85.2354 985.13 85.225 984.859 85.225C984.192 85.225 983.604 85.3292 983.093 85.5375C982.583 85.7458 982.151 86.0375 981.797 86.4125C981.442 86.7875 981.161 87.2354 980.953 87.7563C980.755 88.2667 980.625 88.8292 980.562 89.4438L979.75 89.9125C979.75 88.8917 979.849 87.9333 980.047 87.0375C980.255 86.1417 980.573 85.35 981 84.6625C981.427 83.9646 981.968 83.4229 982.625 83.0375C983.291 82.6417 984.083 82.4438 985 82.4438C985.208 82.4438 985.448 82.4698 985.718 82.5219C985.989 82.5635 986.177 82.6104 986.281 82.6625ZM998.412 82.7563V84.975H989.272V82.7563H998.412ZM992.365 78.6469H995.256V95.475C995.256 96.0479 995.344 96.4802 995.522 96.7719C995.699 97.0635 995.928 97.2563 996.209 97.35C996.49 97.4438 996.792 97.4906 997.115 97.4906C997.355 97.4906 997.605 97.4698 997.865 97.4281C998.136 97.376 998.339 97.3344 998.475 97.3031L998.49 99.6625C998.261 99.7354 997.959 99.8031 997.584 99.8656C997.219 99.9385 996.777 99.975 996.256 99.975C995.548 99.975 994.897 99.8344 994.303 99.5531C993.709 99.2719 993.235 98.8031 992.881 98.1469C992.537 97.4802 992.365 96.5844 992.365 95.4594V78.6469ZM1028.24 86.6938V89.1469H1015.92V86.6938H1028.24ZM1016.39 76.9125V99.6625H1013.38V76.9125H1016.39ZM1030.86 76.9125V99.6625H1027.86V76.9125H1030.86ZM1036.62 91.3969V91.0375C1036.62 89.8188 1036.8 88.6885 1037.15 87.6469C1037.5 86.5948 1038.01 85.6833 1038.68 84.9125C1039.35 84.1313 1040.15 83.5271 1041.1 83.1C1042.05 82.6625 1043.11 82.4438 1044.29 82.4438C1045.48 82.4438 1046.55 82.6625 1047.49 83.1C1048.45 83.5271 1049.26 84.1313 1049.93 84.9125C1050.61 85.6833 1051.12 86.5948 1051.48 87.6469C1051.83 88.6885 1052.01 89.8188 1052.01 91.0375V91.3969C1052.01 92.6156 1051.83 93.7458 1051.48 94.7875C1051.12 95.8292 1050.61 96.7406 1049.93 97.5219C1049.26 98.2927 1048.46 98.8969 1047.51 99.3344C1046.57 99.7615 1045.51 99.975 1044.32 99.975C1043.13 99.975 1042.07 99.7615 1041.12 99.3344C1040.17 98.8969 1039.36 98.2927 1038.68 97.5219C1038.01 96.7406 1037.5 95.8292 1037.15 94.7875C1036.8 93.7458 1036.62 92.6156 1036.62 91.3969ZM1039.51 91.0375V91.3969C1039.51 92.2406 1039.61 93.0375 1039.81 93.7875C1040 94.5271 1040.3 95.1833 1040.7 95.7563C1041.1 96.3292 1041.61 96.7823 1042.21 97.1156C1042.82 97.4385 1043.52 97.6 1044.32 97.6C1045.11 97.6 1045.81 97.4385 1046.4 97.1156C1047 96.7823 1047.5 96.3292 1047.9 95.7563C1048.3 95.1833 1048.59 94.5271 1048.79 93.7875C1049 93.0375 1049.1 92.2406 1049.1 91.3969V91.0375C1049.1 90.2042 1049 89.4177 1048.79 88.6781C1048.59 87.9281 1048.29 87.2667 1047.88 86.6938C1047.49 86.1104 1046.99 85.6521 1046.38 85.3188C1045.79 84.9854 1045.09 84.8188 1044.29 84.8188C1043.5 84.8188 1042.8 84.9854 1042.2 85.3188C1041.6 85.6521 1041.1 86.1104 1040.7 86.6938C1040.3 87.2667 1040 87.9281 1039.81 88.6781C1039.61 89.4177 1039.51 90.2042 1039.51 91.0375ZM1060.11 86.1156V99.6625H1057.2V82.7563H1059.95L1060.11 86.1156ZM1059.52 90.5688L1058.17 90.5219C1058.18 89.3656 1058.33 88.2979 1058.62 87.3188C1058.92 86.3292 1059.35 85.4698 1059.92 84.7406C1060.49 84.0115 1061.21 83.449 1062.06 83.0531C1062.92 82.6469 1063.91 82.4438 1065.03 82.4438C1065.82 82.4438 1066.55 82.5583 1067.22 82.7875C1067.89 83.0063 1068.46 83.3552 1068.95 83.8344C1069.44 84.3135 1069.82 84.9281 1070.09 85.6781C1070.36 86.4281 1070.5 87.3344 1070.5 88.3969V99.6625H1067.61V88.5375C1067.61 87.6521 1067.46 86.9438 1067.16 86.4125C1066.86 85.8813 1066.45 85.4958 1065.91 85.2563C1065.36 85.0063 1064.73 84.8813 1064 84.8813C1063.15 84.8813 1062.43 85.0323 1061.86 85.3344C1061.29 85.6365 1060.83 86.0531 1060.48 86.5844C1060.14 87.1156 1059.89 87.725 1059.73 88.4125C1059.59 89.0896 1059.52 89.8083 1059.52 90.5688ZM1070.47 88.975L1068.53 89.5688C1068.54 88.6417 1068.69 87.751 1068.98 86.8969C1069.29 86.0427 1069.72 85.2823 1070.28 84.6156C1070.85 83.949 1071.56 83.4229 1072.39 83.0375C1073.22 82.6417 1074.18 82.4438 1075.25 82.4438C1076.16 82.4438 1076.96 82.5635 1077.66 82.8031C1078.36 83.0427 1078.96 83.4125 1079.44 83.9125C1079.93 84.4021 1080.3 85.0323 1080.55 85.8031C1080.8 86.574 1080.92 87.4906 1080.92 88.5531V99.6625H1078.02V88.5219C1078.02 87.574 1077.86 86.8396 1077.56 86.3188C1077.27 85.7875 1076.85 85.4177 1076.31 85.2094C1075.78 84.9906 1075.15 84.8813 1074.41 84.8813C1073.77 84.8813 1073.21 84.9906 1072.72 85.2094C1072.23 85.4281 1071.82 85.7302 1071.48 86.1156C1071.15 86.4906 1070.9 86.9229 1070.72 87.4125C1070.55 87.9021 1070.47 88.4229 1070.47 88.975ZM1093.91 99.975C1092.74 99.975 1091.67 99.7771 1090.71 99.3813C1089.76 98.975 1088.94 98.4073 1088.26 97.6781C1087.58 96.949 1087.06 96.0844 1086.69 95.0844C1086.33 94.0844 1086.15 92.9906 1086.15 91.8031V91.1469C1086.15 89.7719 1086.35 88.5479 1086.76 87.475C1087.16 86.3917 1087.71 85.475 1088.41 84.725C1089.11 83.975 1089.9 83.4073 1090.79 83.0219C1091.67 82.6365 1092.59 82.4438 1093.54 82.4438C1094.75 82.4438 1095.79 82.6521 1096.66 83.0688C1097.55 83.4854 1098.27 84.0688 1098.83 84.8188C1099.4 85.5583 1099.81 86.4333 1100.08 87.4438C1100.35 88.4438 1100.49 89.5375 1100.49 90.725V92.0219H1087.87V89.6625H1097.6V89.4438C1097.56 88.6938 1097.4 87.9646 1097.13 87.2563C1096.87 86.5479 1096.45 85.9646 1095.88 85.5063C1095.31 85.0479 1094.53 84.8188 1093.54 84.8188C1092.88 84.8188 1092.28 84.9594 1091.72 85.2406C1091.17 85.5115 1090.7 85.9177 1090.3 86.4594C1089.91 87.001 1089.6 87.6625 1089.38 88.4438C1089.16 89.225 1089.05 90.126 1089.05 91.1469V91.8031C1089.05 92.6052 1089.16 93.3604 1089.38 94.0688C1089.61 94.7667 1089.94 95.3813 1090.37 95.9125C1090.8 96.4438 1091.33 96.8604 1091.94 97.1625C1092.57 97.4646 1093.28 97.6156 1094.07 97.6156C1095.09 97.6156 1095.95 97.4073 1096.66 96.9906C1097.37 96.574 1097.99 96.0167 1098.52 95.3188L1100.27 96.7094C1099.91 97.2615 1099.44 97.7875 1098.88 98.2875C1098.32 98.7875 1097.63 99.1938 1096.8 99.5063C1095.99 99.8188 1095.03 99.975 1093.91 99.975ZM1118.67 76.9125V99.6625H1115.66V76.9125H1118.67ZM1128.21 86.3656V99.6625H1125.32V82.7563H1128.06L1128.21 86.3656ZM1127.52 90.5688L1126.32 90.5219C1126.33 89.3656 1126.5 88.2979 1126.84 87.3188C1127.17 86.3292 1127.64 85.4698 1128.24 84.7406C1128.85 84.0115 1129.57 83.449 1130.4 83.0531C1131.24 82.6469 1132.18 82.4438 1133.2 82.4438C1134.03 82.4438 1134.78 82.5583 1135.45 82.7875C1136.11 83.0063 1136.68 83.3604 1137.15 83.85C1137.63 84.3396 1137.99 84.975 1138.24 85.7563C1138.49 86.5271 1138.62 87.4698 1138.62 88.5844V99.6625H1135.71V88.5531C1135.71 87.6677 1135.58 86.9594 1135.32 86.4281C1135.06 85.8865 1134.68 85.4958 1134.18 85.2563C1133.68 85.0063 1133.07 84.8813 1132.34 84.8813C1131.62 84.8813 1130.96 85.0323 1130.37 85.3344C1129.79 85.6365 1129.28 86.0531 1128.85 86.5844C1128.44 87.1156 1128.11 87.725 1127.87 88.4125C1127.64 89.0896 1127.52 89.8083 1127.52 90.5688ZM1154.45 95.1781C1154.45 94.7615 1154.36 94.376 1154.17 94.0219C1153.99 93.6573 1153.62 93.3292 1153.06 93.0375C1152.51 92.7354 1151.68 92.475 1150.56 92.2563C1149.62 92.0583 1148.78 91.824 1148.02 91.5531C1147.27 91.2823 1146.62 90.9542 1146.09 90.5688C1145.57 90.1833 1145.17 89.7302 1144.89 89.2094C1144.61 88.6885 1144.47 88.0792 1144.47 87.3813C1144.47 86.7146 1144.61 86.0844 1144.91 85.4906C1145.21 84.8969 1145.63 84.3708 1146.17 83.9125C1146.72 83.4542 1147.39 83.0948 1148.16 82.8344C1148.93 82.574 1149.79 82.4438 1150.73 82.4438C1152.09 82.4438 1153.24 82.6833 1154.2 83.1625C1155.16 83.6417 1155.9 84.2823 1156.41 85.0844C1156.92 85.876 1157.17 86.7563 1157.17 87.725H1154.28C1154.28 87.2563 1154.14 86.8031 1153.86 86.3656C1153.59 85.9177 1153.19 85.5479 1152.66 85.2563C1152.14 84.9646 1151.49 84.8188 1150.73 84.8188C1149.93 84.8188 1149.28 84.9438 1148.78 85.1938C1148.29 85.4333 1147.93 85.7406 1147.7 86.1156C1147.48 86.4906 1147.37 86.8865 1147.37 87.3031C1147.37 87.6156 1147.43 87.8969 1147.53 88.1469C1147.65 88.3865 1147.84 88.6104 1148.12 88.8188C1148.41 89.0167 1148.8 89.2042 1149.31 89.3813C1149.82 89.5583 1150.47 89.7354 1151.27 89.9125C1152.65 90.225 1153.79 90.6 1154.69 91.0375C1155.58 91.475 1156.25 92.0115 1156.69 92.6469C1157.12 93.2823 1157.34 94.0531 1157.34 94.9594C1157.34 95.699 1157.19 96.376 1156.87 96.9906C1156.57 97.6052 1156.13 98.1365 1155.55 98.5844C1154.97 99.0219 1154.29 99.3656 1153.48 99.6156C1152.69 99.8552 1151.8 99.975 1150.81 99.975C1149.32 99.975 1148.06 99.7094 1147.03 99.1781C1146 98.6469 1145.22 97.9594 1144.69 97.1156C1144.16 96.2719 1143.89 95.3813 1143.89 94.4438H1146.8C1146.84 95.2354 1147.07 95.8656 1147.48 96.3344C1147.9 96.7927 1148.41 97.1208 1149.02 97.3188C1149.62 97.5063 1150.22 97.6 1150.81 97.6C1151.6 97.6 1152.27 97.4958 1152.8 97.2875C1153.34 97.0792 1153.75 96.7927 1154.03 96.4281C1154.31 96.0635 1154.45 95.6469 1154.45 95.1781ZM1169.82 82.7563V84.975H1160.68V82.7563H1169.82ZM1163.77 78.6469H1166.66V95.475C1166.66 96.0479 1166.75 96.4802 1166.93 96.7719C1167.1 97.0635 1167.33 97.2563 1167.62 97.35C1167.9 97.4438 1168.2 97.4906 1168.52 97.4906C1168.76 97.4906 1169.01 97.4698 1169.27 97.4281C1169.54 97.376 1169.75 97.3344 1169.88 97.3031L1169.9 99.6625C1169.67 99.7354 1169.37 99.8031 1168.99 99.8656C1168.63 99.9385 1168.18 99.975 1167.66 99.975C1166.95 99.975 1166.3 99.8344 1165.71 99.5531C1165.12 99.2719 1164.64 98.8031 1164.29 98.1469C1163.94 97.4802 1163.77 96.5844 1163.77 95.4594V78.6469ZM1184.78 96.7719V88.0688C1184.78 87.4021 1184.64 86.824 1184.37 86.3344C1184.11 85.8344 1183.72 85.449 1183.18 85.1781C1182.65 84.9073 1182 84.7719 1181.22 84.7719C1180.49 84.7719 1179.85 84.8969 1179.29 85.1469C1178.75 85.3969 1178.32 85.725 1178.01 86.1313C1177.71 86.5375 1177.56 86.975 1177.56 87.4438H1174.67C1174.67 86.8396 1174.82 86.2406 1175.14 85.6469C1175.45 85.0531 1175.9 84.5167 1176.48 84.0375C1177.07 83.5479 1177.78 83.1625 1178.61 82.8813C1179.44 82.5896 1180.37 82.4438 1181.39 82.4438C1182.62 82.4438 1183.7 82.6521 1184.64 83.0688C1185.59 83.4854 1186.32 84.1156 1186.86 84.9594C1187.4 85.7927 1187.67 86.8396 1187.67 88.1V95.975C1187.67 96.5375 1187.72 97.1365 1187.81 97.7719C1187.91 98.4073 1188.06 98.9542 1188.26 99.4125V99.6625H1185.25C1185.1 99.3292 1184.99 98.8865 1184.9 98.3344C1184.82 97.7719 1184.78 97.251 1184.78 96.7719ZM1185.28 89.4125L1185.31 91.4438H1182.39C1181.56 91.4438 1180.83 91.5115 1180.18 91.6469C1179.54 91.7719 1179 91.9646 1178.56 92.225C1178.12 92.4854 1177.79 92.8135 1177.56 93.2094C1177.33 93.5948 1177.22 94.0479 1177.22 94.5688C1177.22 95.1 1177.34 95.5844 1177.57 96.0219C1177.81 96.4594 1178.17 96.8083 1178.65 97.0688C1179.14 97.3188 1179.74 97.4438 1180.45 97.4438C1181.34 97.4438 1182.12 97.2563 1182.79 96.8813C1183.47 96.5063 1184.01 96.0479 1184.4 95.5063C1184.81 94.9646 1185.03 94.4385 1185.06 93.9281L1186.29 95.3188C1186.22 95.7563 1186.02 96.2406 1185.7 96.7719C1185.38 97.3031 1184.94 97.8135 1184.4 98.3031C1183.87 98.7823 1183.24 99.1833 1182.5 99.5063C1181.77 99.8188 1180.94 99.975 1180.03 99.975C1178.88 99.975 1177.88 99.751 1177.01 99.3031C1176.16 98.8552 1175.49 98.2563 1175.01 97.5063C1174.54 96.7458 1174.31 95.8969 1174.31 94.9594C1174.31 94.0531 1174.49 93.2563 1174.84 92.5688C1175.19 91.8708 1175.7 91.2927 1176.37 90.8344C1177.04 90.3656 1177.84 90.0115 1178.78 89.7719C1179.72 89.5323 1180.76 89.4125 1181.92 89.4125H1185.28ZM1196.96 75.6625V99.6625H1194.05V75.6625H1196.96ZM1206.34 75.6625V99.6625H1203.43V75.6625H1206.34ZM1222.55 96.7719V88.0688C1222.55 87.4021 1222.41 86.824 1222.14 86.3344C1221.88 85.8344 1221.48 85.449 1220.95 85.1781C1220.42 84.9073 1219.77 84.7719 1218.98 84.7719C1218.25 84.7719 1217.61 84.8969 1217.06 85.1469C1216.52 85.3969 1216.09 85.725 1215.78 86.1313C1215.48 86.5375 1215.33 86.975 1215.33 87.4438H1212.44C1212.44 86.8396 1212.59 86.2406 1212.91 85.6469C1213.22 85.0531 1213.67 84.5167 1214.25 84.0375C1214.84 83.5479 1215.55 83.1625 1216.37 82.8813C1217.21 82.5896 1218.14 82.4438 1219.16 82.4438C1220.39 82.4438 1221.47 82.6521 1222.41 83.0688C1223.35 83.4854 1224.09 84.1156 1224.62 84.9594C1225.17 85.7927 1225.44 86.8396 1225.44 88.1V95.975C1225.44 96.5375 1225.48 97.1365 1225.58 97.7719C1225.68 98.4073 1225.83 98.9542 1226.03 99.4125V99.6625H1223.02C1222.87 99.3292 1222.75 98.8865 1222.67 98.3344C1222.59 97.7719 1222.55 97.251 1222.55 96.7719ZM1223.05 89.4125L1223.08 91.4438H1220.16C1219.33 91.4438 1218.6 91.5115 1217.95 91.6469C1217.31 91.7719 1216.77 91.9646 1216.33 92.225C1215.89 92.4854 1215.56 92.8135 1215.33 93.2094C1215.1 93.5948 1214.98 94.0479 1214.98 94.5688C1214.98 95.1 1215.1 95.5844 1215.34 96.0219C1215.58 96.4594 1215.94 96.8083 1216.42 97.0688C1216.91 97.3188 1217.51 97.4438 1218.22 97.4438C1219.1 97.4438 1219.89 97.2563 1220.56 96.8813C1221.24 96.5063 1221.78 96.0479 1222.17 95.5063C1222.58 94.9646 1222.8 94.4385 1222.83 93.9281L1224.06 95.3188C1223.99 95.7563 1223.79 96.2406 1223.47 96.7719C1223.15 97.3031 1222.71 97.8135 1222.17 98.3031C1221.64 98.7823 1221 99.1833 1220.27 99.5063C1219.54 99.8188 1218.71 99.975 1217.8 99.975C1216.65 99.975 1215.65 99.751 1214.78 99.3031C1213.93 98.8552 1213.26 98.2563 1212.78 97.5063C1212.31 96.7458 1212.08 95.8969 1212.08 94.9594C1212.08 94.0531 1212.25 93.2563 1212.61 92.5688C1212.96 91.8708 1213.47 91.2927 1214.14 90.8344C1214.81 90.3656 1215.61 90.0115 1216.55 89.7719C1217.48 89.5323 1218.53 89.4125 1219.69 89.4125H1223.05ZM1238.66 82.7563V84.975H1229.52V82.7563H1238.66ZM1232.62 78.6469H1235.51V95.475C1235.51 96.0479 1235.59 96.4802 1235.77 96.7719C1235.95 97.0635 1236.18 97.2563 1236.46 97.35C1236.74 97.4438 1237.04 97.4906 1237.37 97.4906C1237.6 97.4906 1237.85 97.4698 1238.12 97.4281C1238.39 97.376 1238.59 97.3344 1238.72 97.3031L1238.74 99.6625C1238.51 99.7354 1238.21 99.8031 1237.83 99.8656C1237.47 99.9385 1237.03 99.975 1236.51 99.975C1235.8 99.975 1235.15 99.8344 1234.55 99.5531C1233.96 99.2719 1233.49 98.8031 1233.13 98.1469C1232.79 97.4802 1232.62 96.5844 1232.62 95.4594V78.6469ZM1246.79 82.7563V99.6625H1243.89V82.7563H1246.79ZM1243.67 78.2719C1243.67 77.8031 1243.81 77.4073 1244.09 77.0844C1244.38 76.7615 1244.81 76.6 1245.37 76.6C1245.92 76.6 1246.35 76.7615 1246.64 77.0844C1246.94 77.4073 1247.09 77.8031 1247.09 78.2719C1247.09 78.7198 1246.94 79.1052 1246.64 79.4281C1246.35 79.7406 1245.92 79.8969 1245.37 79.8969C1244.81 79.8969 1244.38 79.7406 1244.09 79.4281C1243.81 79.1052 1243.67 78.7198 1243.67 78.2719ZM1252.27 91.3969V91.0375C1252.27 89.8188 1252.45 88.6885 1252.8 87.6469C1253.15 86.5948 1253.66 85.6833 1254.33 84.9125C1255 84.1313 1255.8 83.5271 1256.75 83.1C1257.7 82.6625 1258.76 82.4438 1259.94 82.4438C1261.13 82.4438 1262.2 82.6625 1263.14 83.1C1264.1 83.5271 1264.91 84.1313 1265.58 84.9125C1266.26 85.6833 1266.77 86.5948 1267.13 87.6469C1267.48 88.6885 1267.66 89.8188 1267.66 91.0375V91.3969C1267.66 92.6156 1267.48 93.7458 1267.13 94.7875C1266.77 95.8292 1266.26 96.7406 1265.58 97.5219C1264.91 98.2927 1264.11 98.8969 1263.16 99.3344C1262.22 99.7615 1261.16 99.975 1259.97 99.975C1258.78 99.975 1257.72 99.7615 1256.77 99.3344C1255.82 98.8969 1255.01 98.2927 1254.33 97.5219C1253.66 96.7406 1253.15 95.8292 1252.8 94.7875C1252.45 93.7458 1252.27 92.6156 1252.27 91.3969ZM1255.16 91.0375V91.3969C1255.16 92.2406 1255.26 93.0375 1255.46 93.7875C1255.65 94.5271 1255.95 95.1833 1256.35 95.7563C1256.75 96.3292 1257.26 96.7823 1257.86 97.1156C1258.47 97.4385 1259.17 97.6 1259.97 97.6C1260.76 97.6 1261.46 97.4385 1262.05 97.1156C1262.65 96.7823 1263.15 96.3292 1263.55 95.7563C1263.95 95.1833 1264.24 94.5271 1264.44 93.7875C1264.65 93.0375 1264.75 92.2406 1264.75 91.3969V91.0375C1264.75 90.2042 1264.65 89.4177 1264.44 88.6781C1264.24 87.9281 1263.94 87.2667 1263.53 86.6938C1263.14 86.1104 1262.64 85.6521 1262.03 85.3188C1261.44 84.9854 1260.74 84.8188 1259.94 84.8188C1259.15 84.8188 1258.45 84.9854 1257.85 85.3188C1257.25 85.6521 1256.75 86.1104 1256.35 86.6938C1255.95 87.2667 1255.65 87.9281 1255.46 88.6781C1255.26 89.4177 1255.16 90.2042 1255.16 91.0375ZM1275.77 86.3656V99.6625H1272.88V82.7563H1275.62L1275.77 86.3656ZM1275.09 90.5688L1273.88 90.5219C1273.89 89.3656 1274.07 88.2979 1274.4 87.3188C1274.73 86.3292 1275.2 85.4698 1275.81 84.7406C1276.41 84.0115 1277.13 83.449 1277.96 83.0531C1278.81 82.6469 1279.74 82.4438 1280.76 82.4438C1281.59 82.4438 1282.34 82.5583 1283.01 82.7875C1283.68 83.0063 1284.24 83.3604 1284.71 83.85C1285.19 84.3396 1285.56 84.975 1285.81 85.7563C1286.06 86.5271 1286.18 87.4698 1286.18 88.5844V99.6625H1283.27V88.5531C1283.27 87.6677 1283.14 86.9594 1282.88 86.4281C1282.62 85.8865 1282.24 85.4958 1281.74 85.2563C1281.24 85.0063 1280.63 84.8813 1279.9 84.8813C1279.18 84.8813 1278.52 85.0323 1277.93 85.3344C1277.35 85.6365 1276.84 86.0531 1276.42 86.5844C1276 87.1156 1275.67 87.725 1275.43 88.4125C1275.2 89.0896 1275.09 89.8083 1275.09 90.5688Z" fill="white"/>
<defs>
<linearGradient id="paint0_linear_13802_4" x1="49.3457" y1="318.789" x2="1337.2" y2="317.957" gradientUnits="userSpaceOnUse">
<stop stop-color="#1F3F68"/>
<stop offset="0.998233" stop-color="#1F3F68" stop-opacity="0.37"/>
</linearGradient>
</defs>
</svg>
